<svg width="24" height="20" viewBox="0 0 24 20" fill="none" xmlns="http://www.w3.org/2000/svg">
<path d="M22.5746 4.71655C21.849 4.31919 21.1061 3.99093 20.3459 3.73178C19.603 3.47263 18.9033 3.34305 18.2468 3.34305C17.4348 3.34305 16.7955 3.50718 16.3291 3.83544C15.8626 4.1637 15.6294 4.65608 15.6294 5.3126C15.6294 5.7618 15.8021 6.1678 16.1477 6.53061C16.5105 6.87615 16.9683 7.18713 17.5212 7.46356C18.0913 7.73998 18.6787 7.9905 19.2834 8.21509C19.8363 8.42241 20.3805 8.67293 20.9161 8.96663C21.4689 9.24306 21.9613 9.59723 22.3932 10.0292C22.8251 10.4438 23.1707 10.9707 23.4298 11.61C23.689 12.2319 23.8185 13.0008 23.8185 13.9164C23.8185 14.8839 23.568 15.7823 23.067 16.6116C22.566 17.4409 21.8317 18.1147 20.8642 18.633C19.8967 19.134 18.7046 19.3845 17.2879 19.3845C16.5623 19.3845 15.8194 19.3154 15.0592 19.1772C14.3163 19.0217 13.5821 18.7971 12.8564 18.5034C12.1308 18.1924 11.4311 17.8037 10.7573 17.3372L12.4159 14.4088C12.8651 14.7371 13.3488 15.0308 13.8671 15.2899C14.4027 15.5318 14.9383 15.7218 15.4739 15.8601C16.0095 15.9983 16.5018 16.0674 16.951 16.0674C17.4002 16.0674 17.8494 16.0069 18.2986 15.886C18.7651 15.7478 19.1452 15.5232 19.4389 15.2122C19.7499 14.9012 19.9054 14.4693 19.9054 13.9164C19.9054 13.5363 19.7758 13.1908 19.5166 12.8798C19.2748 12.5688 18.9379 12.2838 18.5059 12.0246C18.0913 11.7655 17.6335 11.5409 17.1324 11.3508C16.545 11.1262 15.9403 10.8671 15.3184 10.5734C14.6964 10.2797 14.109 9.92549 13.5562 9.51085C13.0206 9.07893 12.58 8.55199 12.2345 7.93003C11.9062 7.29079 11.7421 6.51333 11.7421 5.59767C11.7421 4.49195 11.984 3.53309 12.4677 2.72109C12.9687 1.90908 13.6685 1.26984 14.5668 0.803368C15.4652 0.319619 16.5018 0.0518296 17.6767 0C19.2143 0 20.4582 0.181406 21.4084 0.544217C22.3759 0.907029 23.2398 1.33895 24 1.83997L22.5746 4.71655Z" fill="black"/>
<path d="M0 19.1773V0.103729H5.70133C7.61905 0.103729 9.2517 0.388796 10.5993 0.95893C11.9469 1.52906 13.0267 2.28924 13.8387 3.23946C14.668 4.18968 15.2726 5.2522 15.6527 6.42702C16.0328 7.60184 16.2229 8.7853 16.2229 9.97739C16.2229 11.3941 15.9637 12.6726 15.4454 13.8128C14.9444 14.9358 14.2533 15.9033 13.3722 16.7153C12.4911 17.5101 11.4718 18.1234 10.3142 18.5553C9.15668 18.9699 7.93003 19.1773 6.63427 19.1773H0ZM3.75769 15.5491H5.98639C6.93661 15.5491 7.80045 15.4282 8.57791 15.1863C9.35536 14.9272 10.0205 14.5557 10.5734 14.072C11.1435 13.5882 11.5754 12.9835 11.8691 12.2579C12.1801 11.515 12.3356 10.6685 12.3356 9.71824C12.3356 8.47431 12.1283 7.46363 11.7136 6.68617C11.3163 5.89144 10.8152 5.27812 10.2106 4.8462C9.62315 4.41428 9.01846 4.12057 8.3965 3.96508C7.77454 3.79232 7.2476 3.70593 6.81568 3.70593H3.75769V15.5491Z" fill="black"/>
<path fill-rule="evenodd" clip-rule="evenodd" d="M15.6304 5.32338C15.6304 5.02846 15.6774 4.76667 15.7716 4.53799C15.4189 3.88291 14.9908 3.26675 14.4881 2.6903C14.1584 2.30491 13.7597 1.93243 13.3573 1.60754C13.2996 1.65974 13.2405 1.71039 13.1815 1.76095C13.0219 1.89769 12.8631 2.03384 12.7337 2.19829C13.1177 2.50345 13.5324 2.89065 13.8397 3.25025C13.9397 3.36479 14.0364 3.48096 14.1298 3.59876L14.1366 3.59506C14.3507 3.88062 14.7479 4.4454 14.9397 4.71947C15.0653 4.8989 15.1871 5.09762 15.3133 5.30346C15.4653 5.5515 15.6237 5.80988 15.8027 6.05732C15.6878 5.82704 15.6304 5.58239 15.6304 5.32338ZM12.5872 18.3942C12.2828 18.2544 11.9831 18.1006 11.688 17.933C12.2969 17.5926 12.8586 17.1903 13.3733 16.7261C13.7682 16.3622 14.1546 15.9164 14.4731 15.49C14.7575 15.5987 15.0421 15.7059 15.3264 15.7853C14.936 16.342 14.4585 16.891 13.9538 17.3561L13.9504 17.3592L13.947 17.3623C13.5224 17.7453 13.0689 18.0892 12.5872 18.3942Z" fill="white"/>
<path d="M16.0599 11.851C16.1128 11.5645 16.153 11.2712 16.1803 10.971C15.8971 10.8488 15.6102 10.7191 15.3195 10.5818C14.6975 10.2881 14.1101 9.93395 13.5573 9.51931C13.0217 9.08739 12.5811 8.56045 12.2356 7.93849C12.167 7.80486 12.1055 7.6652 12.0513 7.5195C12.2275 8.10169 12.3222 8.7757 12.3352 9.54153C12.5458 9.77306 12.7739 9.98809 13.0195 10.1862L13.0312 10.1956L13.0433 10.2047C13.6422 10.6538 14.2792 11.038 14.9537 11.3565C15.3276 11.5331 15.6964 11.6979 16.0599 11.851Z" fill="white"/>
</svg>
