<svg xmlns="http://www.w3.org/2000/svg" width="33" height="26" fill="none"><g fill="currentColor" clip-path="url(#a)"><path d="M28.089 5.005c1.014.348 2.004.788 2.972 1.321l1.9-3.858c-1.014-.672-2.165-1.251-3.455-1.738C28.239.243 26.58 0 24.53 0c-1.567.07-2.949.429-4.146 1.078a7.436 7.436 0 0 0-1.586 1.1c.527.43 1.048.922 1.48 1.43.669.771 1.238 1.595 1.708 2.471.153-.379.402-.69.747-.935.622-.44 1.474-.66 2.557-.66.875 0 1.808.174 2.799.521ZM21.81 7.33c.022.278.096.543.221.795-.238-.332-.45-.679-.652-1.012-.169-.276-.331-.542-.498-.783a74.192 74.192 0 0 0-1.071-1.508l-.01.005a11.19 11.19 0 0 0-1.777-1.81 6.926 6.926 0 0 0-.438.633c-.645 1.089-.968 2.375-.968 3.858 0 1.228.219 2.271.657 3.128a7.148 7.148 0 0 0 1.762 2.12c.737.557 1.52 1.032 2.35 1.426.829.394 1.635.741 2.418 1.043.668.255 1.279.556 1.832.903.576.348 1.025.73 1.347 1.147.346.418.518.881.518 1.39 0 .742-.207 1.322-.622 1.739-.391.417-.898.718-1.52.904a6.848 6.848 0 0 1-1.797.243c-.599 0-1.255-.093-1.97-.278l-.223-.06a13.315 13.315 0 0 1-1.803 2.066l-.005.005-.004.004c-.563.51-1.163.969-1.8 1.376.114.053.23.104.346.154.967.394 1.946.695 2.937.904 1.014.185 2.004.278 2.972.278 1.889 0 3.478-.336 4.768-1.008 1.29-.695 2.269-1.599 2.937-2.711a6.897 6.897 0 0 0 1.002-3.615c0-1.228-.173-2.26-.518-3.094-.346-.857-.806-1.564-1.382-2.12a7.528 7.528 0 0 0-1.97-1.425c-.714-.394-1.44-.73-2.177-1.008a26.542 26.542 0 0 1-2.35-1.008c-.737-.371-1.347-.788-1.83-1.252-.409-.43-.636-.907-.683-1.428Z"/><path d="M16.557 24.046a12.314 12.314 0 0 0 2.235-1.612 12.36 12.36 0 0 0 1.426-1.604 14.005 14.005 0 0 1-.767-.322 13.509 13.509 0 0 1-1.936-1.182l-2.21 3.928c.41.286.827.55 1.252.792Z"/><path d="M.96.14v25.582h8.847c1.727 0 3.363-.278 4.906-.834a12.584 12.584 0 0 0 4.078-2.468 11.727 11.727 0 0 0 2.764-3.893c.372-.824.644-1.701.816-2.633a37.705 37.705 0 0 1-1.472-.662c-.9-.427-1.749-.942-2.547-1.544l-.016-.013-.016-.012a8.142 8.142 0 0 1-.912-.865 12.152 12.152 0 0 0 0 .237c0 1.274-.207 2.41-.622 3.406a6.17 6.17 0 0 1-1.727 2.434c-.737.648-1.624 1.146-2.66 1.494-1.037.325-2.19.487-3.456.487H5.97V4.97h4.078c.575 0 1.278.116 2.107.347.83.209 1.636.603 2.419 1.182.806.58 1.474 1.402 2.004 2.468.184.347.337.728.46 1.144.07.186.148.365.236.536a7.148 7.148 0 0 0 1.762 2.12c.737.556 1.52 1.031 2.35 1.425.387.184.768.358 1.145.521.04-.433.06-.877.06-1.332a15.47 15.47 0 0 0-.76-4.762c-.508-1.575-1.314-3-2.42-4.275-1.082-1.274-2.522-2.294-4.319-3.059C13.297.522 11.12.14 8.563.14H.96Z"/></g><defs><clipPath id="a"><path fill="#fff" d="M0 0H32V26H0z" transform="translate(.98)"/></clipPath></defs></svg>