<svg width="302" height="297" viewBox="0 0 302 297" fill="none" xmlns="http://www.w3.org/2000/svg">
    <path
        d="M298.493 141.834C276.723 122.723 243.819 123.926 223.494 144.569L151.136 218.089L133.052 201.15C112.48 181.881 80.3686 182.256 60.2307 201.983L56.8676 205.294L119.177 265.842C120.38 267.016 122.311 266.987 123.479 265.778L196.594 190.233C196.424 189.799 196.33 189.329 196.33 188.842C196.33 186.67 198.091 184.915 200.257 184.915C202.381 184.915 204.189 186.729 204.183 188.854C204.178 191.014 202.423 192.757 200.257 192.757C199.863 192.757 199.476 192.692 199.112 192.587L125.986 268.161C124.8 269.382 124.829 271.336 126.05 272.522L128.368 274.776C129.566 275.938 131.473 275.908 132.63 274.711L217.26 187.251V187.245C216.873 186.119 217.008 184.827 217.73 183.759C218.957 181.975 221.398 181.517 223.188 182.744C224.979 183.97 225.436 186.412 224.21 188.202C223.188 189.687 221.334 190.251 219.714 189.693L135.159 277.071C133.974 278.297 134.003 280.252 135.224 281.443L137.396 283.556C138.881 285.006 141.264 284.965 142.707 283.474L219.227 204.39C219.098 203.997 219.015 203.562 219.015 203.122C219.015 200.956 220.758 199.207 222.918 199.196C225.043 199.19 226.863 200.997 226.863 203.122C226.863 205.288 225.108 207.049 222.936 207.049C222.496 207.049 222.073 206.972 221.674 206.832L144.539 286.538C143.447 287.665 143.476 289.461 144.603 290.553L150.842 296.616L301.105 144.123L298.493 141.834Z"
        fill="rgb(109, 40, 217)" />
    <path
        d="M0.104584 147.275L40.6386 187.504L95.1828 128.558L150.672 183.73C171.338 162.718 171.074 128.928 150.079 108.244L95.6524 54.6152L0.104584 147.275Z"
        fill="rgb(109, 40, 217)" />
    <path
        d="M112.82 38.6268L169.237 94.4388C188.471 113.467 219.332 113.82 238.989 95.2312L242.475 91.9326L149.733 0.287964L112.82 38.6268Z"
        fill="rgb(109, 40, 217)" />
</svg>